<svg xmlns="http://www.w3.org/2000/svg" width="55" height="61" fill="none"><path fill="#212121" d="m54 26-3-2-2 1-3 2-4 3-3-1a15 15 0 0 0-7-29 15 15 0 0 0-12 24h-7l-7 3-4 2a4 4 0 0 0 4 7l3-2 5-2h3L5 44l-3 3a4 4 0 0 0 0 5 4 4 0 0 0 5 0l3-3 4-3 2 2-4 4-3 3a4 4 0 0 0 0 5 4 4 0 0 0 5 0l3-3 5-5 2-2 11-12 8 1h1l7-5 3-3v-5ZM5 34H3a2 2 0 0 1 0-3l3-1 1 2v1l-2 1Zm7-4-3 2-1-2v-1l4-2v3Zm33-15-1 6-9-4-2-3 3-11c6 2 9 7 9 12Zm-25 0A13 13 0 0 1 34 3l-3 10c-2 0-4 2-4 4a4 4 0 0 0 7 2l9 4a13 13 0 0 1-23-8Zm13 2-2 2-2-2 2-2 2 2ZM5 50H4a1 1 0 0 1 0-2l2-2 1 2-2 2Zm7 8h-1a1 1 0 0 1 0-2l2-2 1 1 1 1-3 2Zm8-7-4 3h-1l-1-1 4-4v-1h1-1v-1l-3-3-1-1h-1l-4 3-2-2 6-5 9 10-2 2Zm15-16a1 1 0 0 0-1 1L24 47l-10-9 6-7a1 1 0 0 0 0-2h-5v-3h7a15 15 0 0 0 13 4h1l5 3v1l1 2-7-1Zm9 1-1-4 3-2 1 1 1 2-4 3Zm8-7-2 2-2-3 2-1h1a2 2 0 0 1 1 2Z"/></svg>