<svg xmlns="http://www.w3.org/2000/svg" width="70" height="54" fill="none"><path fill="#212121" d="M3 54h56c2 0 4-2 4-4v-4c0-2-2-4-4-4h-1V13l7-6a4 4 0 1 0-2-2l-5 5V7c0-2-1-3-3-3H8C6 4 5 5 5 7v35H3c-1 0-3 2-3 4v4c0 2 2 4 3 4ZM66 3a1 1 0 1 1 0 2 1 1 0 0 1 0-2ZM7 7l1-1h47l1 1v5l-2 2v-4l-2-2H10l-1 2v29l1 1h42l2-1V18l2-3v27H7V7Zm10 15a3 3 0 1 0 3 6l4 2h1l9-10 8 7h2l7-7v18H12V11h39v6l-8 7-8-6h-2l-9 10-3-2c0-2-2-4-4-4Zm2 4a1 1 0 1 1-3 0 1 1 0 0 1 3 0Zm7 19h11v1l-1 1h-9l-1-1v-1ZM2 46l1-1h20v1c0 2 2 3 4 3h9c2 0 4-1 4-3v-1h19l2 1v4l-2 2H3l-1-2v-4Z"/></svg>